<svg width="150" height="40" viewBox="0 0 150 40" fill="none" xmlns="http://www.w3.org/2000/svg">
<g clip-path="url(#clip0_11_1831)">
<path d="M31.1073 2.3877H20.3327V7.6862L15.0695 2.3877H14.2751C6.40516 2.3877 0 8.80561 0 16.6912C0 24.5767 6.40516 30.9947 14.2751 30.9947H19.3148V26.2185L29.0963 39.9996V30.9947H31.1073C38.9772 30.9947 45.3823 24.5767 45.3823 16.6912C45.3823 8.80561 38.9772 2.3877 31.1073 2.3877ZM31.1073 24.5519H14.2751C9.95531 24.5519 6.42999 21.0195 6.42999 16.6912C6.42999 12.3628 9.95531 8.83048 14.2751 8.83048H31.1073C35.427 8.83048 38.9523 12.3628 38.9523 16.6912C38.9523 21.0195 35.427 24.5519 31.1073 24.5519Z" fill="white"/>
<path d="M66.286 21.7922H54.6674L51.5889 30.026H49.0566L58.9126 3.30957H61.9911L71.8968 30.026H69.3645L66.286 21.7922ZM65.5164 19.6777L60.5015 6.07076L55.437 19.6777H65.5164Z" fill="white"/>
<path d="M73.3119 25.6728L75.4966 24.8271C76.1918 27.0907 78.2523 28.434 81.4301 28.434C84.6079 28.434 86.445 27.1156 86.445 24.7773C86.445 19.2052 74.2802 21.6679 74.2802 14.7027C74.2802 7.73751 77.0855 9.32955 81.2315 9.32955C85.3775 9.32955 87.2146 10.7475 88.1332 13.4091L85.9733 14.2549C85.2037 12.2649 83.5652 11.2947 81.2067 11.2947C78.8482 11.2947 76.7628 12.5136 76.7628 14.5534C76.7628 19.8271 88.9276 17.1654 88.9276 24.5783C88.9276 31.9912 85.8988 30.4241 81.3308 30.4241C76.7628 30.4241 74.2802 28.6828 73.2871 25.648L73.3119 25.6728Z" fill="white"/>
<path d="M106.504 30.0264L95.7295 19.6782V30.0264H93.1973V1.91699H95.7295V18.4095L106.082 9.75281H109.111L98.4604 19.0563L109.458 30.0016H106.504V30.0264Z" fill="white"/>
<path d="M135.501 30.026L134.111 10.2747L127.706 29.0558H123.634L117.229 10.2996L115.814 30.026H111.246L113.158 3.30957H117.726V3.35932L118.843 3.30957L125.67 23.2101L132.497 3.30957L133.615 3.35932V3.30957H138.133L140.044 30.026H135.476H135.501Z" fill="white"/>
<path d="M143.346 3.31041C143.346 1.41986 144.81 0.00195312 146.672 0.00195312C148.534 0.00195312 149.999 1.41986 149.999 3.31041C149.999 5.20096 148.534 6.54424 146.672 6.54424C144.81 6.54424 143.346 5.20096 143.346 3.31041ZM144.215 9.7532H149.081V30.002H144.215V9.7532Z" fill="white"/>
</g>
<defs>
<clipPath id="clip0_11_1831">
<rect width="150" height="40" fill="white"/>
</clipPath>
</defs>
</svg>
