<svg width="40" height="40" viewBox="0 0 40 40" fill="none" xmlns="http://www.w3.org/2000/svg">
<path d="M36.6666 14.1668C36.6666 8.18375 31.8164 3.3335 25.8332 3.3335C22.3617 3.3335 19.2717 4.97066 17.2891 7.51218C25.7451 7.8391 32.4999 14.7975 32.4999 23.3335C32.4999 23.5173 32.4967 23.7005 32.4906 23.8828L33.0444 24.031C34.6549 24.4618 36.1282 22.9885 35.6974 21.378L35.4851 20.5845C35.3136 19.9437 35.4167 19.2665 35.6924 18.663C36.3179 17.2935 36.6666 15.7709 36.6666 14.1668Z" fill="#2563EB"/>
<path fill-rule="evenodd" clip-rule="evenodd" d="M30.0007 23.3333C30.0007 30.6972 24.0312 36.6667 16.6673 36.6667C14.6081 36.6667 12.658 36.1998 10.9169 35.3663C10.3185 35.0798 9.64053 34.9793 8.99963 35.1507L6.95623 35.6975C5.34567 36.1283 3.87223 34.655 4.30317 33.0445L4.8499 31.001C5.0214 30.3602 4.9208 29.6822 4.63432 29.0837C3.80078 27.3427 3.33398 25.3925 3.33398 23.3333C3.33398 15.9695 9.30352 10 16.6673 10C24.0312 10 30.0007 15.9695 30.0007 23.3333ZM10.834 25C11.7545 25 12.5007 24.2538 12.5007 23.3333C12.5007 22.4128 11.7545 21.6667 10.834 21.6667C9.91352 21.6667 9.16732 22.4128 9.16732 23.3333C9.16732 24.2538 9.91352 25 10.834 25ZM16.6673 25C17.5878 25 18.334 24.2538 18.334 23.3333C18.334 22.4128 17.5878 21.6667 16.6673 21.6667C15.7469 21.6667 15.0007 22.4128 15.0007 23.3333C15.0007 24.2538 15.7469 25 16.6673 25ZM22.5007 25C23.4212 25 24.1673 24.2538 24.1673 23.3333C24.1673 22.4128 23.4212 21.6667 22.5007 21.6667C21.5802 21.6667 20.834 22.4128 20.834 23.3333C20.834 24.2538 21.5802 25 22.5007 25Z" fill="#2563EB"/>
</svg>
