<svg width="77" height="64" viewBox="0 0 77 64" fill="none" xmlns="http://www.w3.org/2000/svg">
<path d="M52.7778 0H34.4899V9.01637L25.5883 0H24.2222C10.8699 0 0 10.92 0 24.3339C0 37.7477 10.8699 48.6677 24.2222 48.6677H32.7566V40.5368L49.3552 64V48.6677H52.7778C66.1301 48.6677 77 37.7477 77 24.3339C77 10.92 66.1301 0 52.7778 0ZM52.7778 37.7182H24.2222C16.8777 37.7182 10.8993 31.7122 10.8993 24.3339C10.8993 16.9555 16.8777 10.9495 24.2222 10.9495H52.7778C60.1223 10.9495 66.1007 16.9555 66.1007 24.3339C66.1007 31.7122 60.1223 37.7182 52.7778 37.7182Z" fill="url(#paint0_linear_58_10774)"/>
<defs>
<linearGradient id="paint0_linear_58_10774" x1="0" y1="32.0074" x2="77" y2="32.0074" gradientUnits="userSpaceOnUse">
<stop stop-color="#1629BC"/>
<stop offset="1" stop-color="#2693E7"/>
</linearGradient>
</defs>
</svg>
