<svg width="833" height="689" viewBox="0 0 833 689" fill="none" xmlns="http://www.w3.org/2000/svg">
<g clip-path="url(#clip0_24_2491)">
<path d="M570.804 0H373.016V97.0669L276.744 0H261.969C117.561 0 0 117.561 0 261.969C0 406.378 117.561 523.939 261.969 523.939H354.27V436.404L533.788 689V523.939H570.804C715.213 523.939 832.773 406.378 832.773 261.969C832.773 117.561 715.213 0 570.804 0ZM570.804 406.06H261.969C182.537 406.06 117.878 341.402 117.878 261.969C117.878 182.537 182.537 117.878 261.969 117.878H570.804C650.237 117.878 714.895 182.537 714.895 261.969C714.895 341.402 650.237 406.06 570.804 406.06Z" fill="white"/>
</g>
<defs>
<clipPath id="clip0_24_2491">
<rect width="832.773" height="689" fill="white"/>
</clipPath>
</defs>
</svg>
